<svg xmlns="http://www.w3.org/2000/svg" aria-hidden="true" style="position:absolute;width:0;height:0;overflow:hidden"><defs>

<symbol id="icon-mail" viewBox="0 0 32 32"><path stroke-linecap="round" stroke-linejoin="round" stroke-width="1.333" d="M5.333 5.333h21.333A2.667 2.667 0 0 1 29.333 8v16a2.667 2.667 0 0 1-2.667 2.667H5.333A2.667 2.667 0 0 1 2.666 24V8a2.667 2.667 0 0 1 2.667-2.667z"/><path stroke-linecap="round" stroke-linejoin="round" stroke-width="1.333" d="m29.333 9.333-11.96 7.6c-.39.248-.864.395-1.373.395s-.984-.147-1.384-.401l.011.006-11.96-7.6"/></symbol>

<symbol id="icon-smartphone" viewBox="0 0 32 32"><path stroke-linecap="round" stroke-linejoin="round" stroke-width="1.333" d="M9.333 2.667h13.333a2.667 2.667 0 0 1 2.667 2.667v21.333a2.667 2.667 0 0 1-2.667 2.667H9.333a2.667 2.667 0 0 1-2.667-2.667V5.334a2.667 2.667 0 0 1 2.667-2.667zM16 24h.013"/></symbol>

<symbol id="icon-calendar" viewBox="0 0 32 32"><path stroke-linecap="round" stroke-linejoin="round" stroke-width="1.333" d="M10.667 2.667V8M21.333 2.667V8M6.667 5.333h18.667A2.667 2.667 0 0 1 28.001 8v18.667a2.667 2.667 0 0 1-2.667 2.667H6.667A2.667 2.667 0 0 1 4 26.667V8a2.667 2.667 0 0 1 2.667-2.667zM4 13.333h24M10.667 18.667h.013M16 18.667h.013M21.333 18.667h.013M10.667 24h.013M16 24h.013M21.333 24h.013"/></symbol>

<symbol id="icon-geo" viewBox="0 0 32 32"><path stroke-linecap="round" stroke-linejoin="round" stroke-width="1.333" d="M26.667 13.333c0 6.657-7.385 13.591-9.865 15.732a1.333 1.333 0 0 1-1.606-.002l.003.002c-2.48-2.141-9.865-9.075-9.865-15.732 0-5.891 4.776-10.667 10.667-10.667s10.667 4.776 10.667 10.667"/><path stroke-linecap="round" stroke-linejoin="round" stroke-width="1.333" d="M20 13.333a4 4 0 1 1-8 0 4 4 0 0 1 8 0z"/></symbol>

<symbol id="icon-book" viewBox="0 0 32 32"><path stroke-linecap="round" stroke-linejoin="round" stroke-width="1.333" d="M2.667 4h8A5.333 5.333 0 0 1 16 9.333V28a4 4 0 0 0-4-4H2.667zM29.333 4h-8A5.333 5.333 0 0 0 16 9.333V28a4 4 0 0 1 4-4h9.333zM8 10.667h2.667M8 16h2.667M21.333 10.667H24M21.333 16H24"/></symbol>

<symbol id="icon-eye" viewBox="0 0 32 32"><path stroke-linecap="round" stroke-linejoin="round" stroke-width="1.333" d="M2.749 16.464a1.346 1.346 0 0 1 .003-.937l-.003.009C4.955 10.287 10.055 6.668 16 6.668s11.044 3.619 13.215 8.774l.035.094a1.346 1.346 0 0 1-.003.937l.003-.009c-2.206 5.249-7.306 8.868-13.251 8.868S4.955 21.713 2.784 16.558l-.035-.094"/><path stroke-linecap="round" stroke-linejoin="round" stroke-width="1.333" d="M20 16a4 4 0 1 1-8 0 4 4 0 0 1 8 0z"/></symbol>

<symbol id="icon-instagram" viewBox="0 0 32 32"><path stroke-linecap="round" stroke-linejoin="round" stroke-width="1.333" d="M9.333 2.667h13.333a6.667 6.667 0 0 1 6.667 6.667v13.333a6.667 6.667 0 0 1-6.667 6.667H9.333a6.667 6.667 0 0 1-6.667-6.667V9.334a6.667 6.667 0 0 1 6.667-6.667z"/><path stroke-linecap="round" stroke-linejoin="round" stroke-width="1.333" d="M21.333 15.16a5.333 5.333 0 1 1-4.463-4.49l-.03-.004a5.345 5.345 0 0 1 4.49 4.464l.004.03zM23.333 8.667h.013"/></symbol>

<symbol id="icon-linkedin" viewBox="0 0 32 32"><path stroke-linecap="round" stroke-linejoin="round" stroke-width="1.333" d="M21.333 10.667a8 8 0 0 1 8 8V28H24v-9.333a2.667 2.667 0 1 0-5.334 0V28h-5.333v-9.333a8 8 0 0 1 8-8zM2.667 12H8v16H2.667V12zM8 5.333a2.667 2.667 0 1 1-5.334 0 2.667 2.667 0 0 1 5.334 0z"/></symbol>

<symbol id="icon-telegram" viewBox="0 0 32 32"><path stroke-linecap="round" stroke-linejoin="round" stroke-width="1.333" d="M29.333 2.667 20 29.334l-5.333-12-12-5.333zM29.333 2.667 14.666 17.334"/></symbol>

<symbol id="icon-github" viewBox="0 0 32 32"><path stroke-linecap="round" stroke-linejoin="round" stroke-width="1.333" d="M20 29.333V24a6.374 6.374 0 0 0-1.344-4.68l.01.013c4 0 8-2.667 8-7.333a7.204 7.204 0 0 0-1.333-4.667 9.872 9.872 0 0 0 0-4.667s-1.333 0-4 2a28.682 28.682 0 0 0-10.667 0c-2.667-2-4-2-4-2a9.225 9.225 0 0 0 0 4.667 7.151 7.151 0 0 0-1.332 4.689L5.333 12c0 4.667 4 7.333 8 7.333-.52.653-.907 1.4-1.133 2.2s-.293 1.64-.2 2.467v5.333"/><path stroke-linecap="round" stroke-linejoin="round" stroke-width="1.333" d="M12 24c-6.013 2.667-6.667-2.667-9.333-2.667"/></symbol>

<symbol id="icon-close" viewBox="0 0 32 32"><path stroke-linecap="round" stroke-linejoin="round" stroke-width="1.333" d="M24 8 8 24M8 8l16 16"/></symbol>

<symbol id="icon-quote" viewBox="0 0 47 32"><path d="m13.4.201 2.053 1.243a.7.7 0 0 1 .178 1.04c-2.998 3.692-5.722 7.695-5.722 12.657 4.093 0 8.31 3.372 8.31 7.688 0 6.03-4.848 9.785-9.695 9.086S.808 27.721.214 23.528C-1.149 13.911 4.155 5.251 11.965.211A1.351 1.351 0 0 1 13.4.201zm29.085 0 2.053 1.243a.7.7 0 0 1 .178 1.04c-2.998 3.692-5.722 7.695-5.722 12.657 4.093 0 8.31 3.372 8.31 7.688 0 6.03-4.848 9.785-9.695 9.086s-7.716-4.194-8.31-8.387C27.936 13.911 33.24 5.251 41.05.211a1.351 1.351 0 0 1 1.435-.01z"/></symbol>

<symbol id="icon-arrow-up" viewBox="0 0 32 32"><path stroke-linecap="round" stroke-linejoin="round" stroke-width="1.333" d="m24 20-8-8-8 8"/></symbol>

<symbol id="icon-arrow-down" viewBox="0 0 32 32"><path stroke-linecap="round" stroke-linejoin="round" stroke-width="1.333" d="m8 12 8 8 8-8"/></symbol>

<symbol id="icon-animation" viewBox="0 0 32 32"><path d="M30.594 2.438H1.405c-.776 0-1.406.629-1.406 1.406v19.457c0 .776.629 1.406 1.406 1.406h11.14v2.457h-1.327a1.21 1.21 0 1 0 0 2.42h9.562a1.21 1.21 0 0 0 0-2.42h-1.327v-2.457h11.14c.776 0 1.406-.629 1.406-1.406V3.844c0-.776-.629-1.406-1.406-1.406zm-9.541 25.934a.273.273 0 0 1-.273.273h-9.562a.273.273 0 1 1 0-.546h9.561c.151 0 .273.122.273.273zm10.01-5.072c0 .258-.21.468-.468.468H15.907a.469.469 0 1 0 0 .936h2.611v2.457h-5.034v-2.457h.237a.469.469 0 1 0 0-.936H1.407a.47.47 0 0 1-.469-.468V3.843a.47.47 0 0 1 .469-.469h29.189c.258 0 .468.21.468.469z"/><path d="M29.306 4.548H2.693c-.43 0-.781.35-.781.781v15.669c0 .43.35.781.781.781h26.613c.43 0 .781-.35.781-.781V5.329a.781.781 0 0 0-.781-.781zm-23.062.937v5.216H4.599a.469.469 0 0 0 0 .938h1.645v2.622c0 .086-.07.156-.156.156H2.85V5.485zM2.85 20.842v-5.488h3.238c.603 0 1.093-.49 1.093-1.093V5.486H29.15v8.906h-3.488a.156.156 0 0 1-.156-.156V7.177a.469.469 0 0 0-.937 0v7.059c0 .603.49 1.093 1.093 1.093h3.488v5.514z"/><path d="M28.309 18.547h-3.791c-.201-.661-.816-1.144-1.543-1.144s-1.342.483-1.543 1.144H9.892c-.201-.661-.817-1.144-1.543-1.144s-1.342.483-1.543 1.144H3.915a.469.469 0 1 0 0 .937h2.891c.201.661.817 1.144 1.543 1.144s1.342-.483 1.543-1.144h11.54c.201.661.817 1.144 1.543 1.144s1.342-.483 1.543-1.144h3.791a.468.468 0 0 0 0-.937zm-19.96 1.144a.676.676 0 1 1 .002-1.352.676.676 0 0 1-.002 1.352zm14.626 0a.676.676 0 1 1 0-1.353.676.676 0 0 1 0 1.353z"/><path d="M28.309 16.252H14.645c-.201-.661-.817-1.144-1.543-1.144s-1.342.483-1.543 1.144H3.915a.469.469 0 1 0 0 .937h7.644c.201.661.817 1.144 1.543 1.144s1.342-.483 1.543-1.144h13.664a.469.469 0 0 0 .001-.937zm-15.208 1.144a.676.676 0 0 1-.675-.675v-.001c0-.001 0 0 0 0a.676.676 0 1 1 .675.677zM13.43 14.703a1.089 1.089 0 0 0 1.093 0l5.718-3.301c.342-.197.547-.552.547-.947s-.204-.749-.547-.947l-5.718-3.301c-.342-.197-.751-.197-1.093 0s-.547.552-.547.947v6.603c0 .395.204.749.547.947zm.391-7.549c0-.078.049-.118.078-.135a.158.158 0 0 1 .079-.022c.023 0 .05.006.078.022l5.718 3.301c.068.039.078.102.078.135s-.01.096-.078.135l-5.718 3.301c-.068.039-.127.017-.156 0s-.078-.057-.078-.135z"/></symbol>

<symbol id="icon-app" viewBox="0 0 32 32"><path d="M29.785.886a.389.389 0 0 0-.394.394v6.892c0 .197.148.394.394.394s.394-.148.394-.394V1.28a.389.389 0 0 0-.394-.394zM29.785 9.255a.389.389 0 0 0-.394.394v.985c0 .197.148.394.394.394s.394-.148.394-.394v-.985a.389.389 0 0 0-.394-.394zM4.185 27.963h-.591v-.64c0-.197-.148-.394-.394-.394s-.394.148-.394.394v.64h-.591c-.197 0-.394.148-.394.394s.148.394.394.394h.64v.64c0 .197.148.394.394.394s.394-.148.394-.394v-.64h.64c.197 0 .394-.148.394-.394s-.295-.394-.492-.394zM28.308 12.702h-.64v-.64c0-.197-.148-.394-.394-.394s-.394.148-.394.394v.64h-.64c-.197 0-.394.148-.394.394s.148.394.394.394h.64v.64c0 .197.148.394.394.394s.394-.148.394-.394v-.64h.64c.197 0 .394-.148.394-.394s-.197-.394-.394-.394zM12.062 3.102h6.892c.197 0 .394-.148.394-.394s-.148-.394-.394-.394h-6.892c-.197 0-.394.148-.394.394s.197.394.394.394zM16 26.978c-.738 0-1.378.591-1.378 1.378s.591 1.378 1.378 1.378 1.378-.591 1.378-1.378-.64-1.378-1.378-1.378zm0 1.97c-.345 0-.64-.295-.64-.64s.295-.64.64-.64.64.295.64.64-.295.64-.64.64z"/><path d="M23.385 10.929c.246 0 .542.049.788.098h.197a.389.389 0 0 0 .394-.394V.639a.389.389 0 0 0-.394-.394H6.647a.389.389 0 0 0-.394.394v30.523c0 .197.148.394.394.394H24.37a.389.389 0 0 0 .394-.394V16.245a.389.389 0 0 0-.394-.394h-.197c-.246.098-.492.098-.788.098-1.428 0-2.609-1.182-2.609-2.609s1.182-2.412 2.609-2.412zm-5.908-1.378.738 1.428-.295.738-1.526.492a.37.37 0 0 0-.246.345v1.969a.37.37 0 0 0 .246.345l1.526.492.295.738-.738 1.428a.48.48 0 0 0 .049.443l1.378 1.378c.098.098.295.148.443.049l1.428-.738.738.295.492 1.526a.37.37 0 0 0 .345.246h1.575v4.185h-3.742v-1.231a.37.37 0 0 0-.246-.345l-1.231-.345c-.049-.197-.148-.345-.197-.542l.591-1.132a.48.48 0 0 0-.049-.443l-1.132-1.132c-.098-.098-.295-.148-.443-.049l-1.132.591c-.148-.098-.345-.148-.542-.197l-.394-1.231a.37.37 0 0 0-.345-.246h-1.625a.37.37 0 0 0-.345.246l-.394 1.231c-.197.049-.345.148-.542.197l-1.182-.591a.48.48 0 0 0-.443.049L9.4 20.872c-.098.098-.148.295-.049.443l.591 1.132c-.098.148-.148.345-.197.542l-1.231.394a.37.37 0 0 0-.246.345v1.231H7.037V5.07h16.985v1.231h-1.575a.37.37 0 0 0-.345.246l-.492 1.526-.738.295-1.428-.738a.48.48 0 0 0-.443.049l-1.378 1.378c-.197.148-.197.345-.148.492zm-.542 15.458c0-.148.049-.295.049-.443 0-1.526-1.231-2.757-2.757-2.757s-2.757 1.231-2.757 2.757c0 .148 0 .295.049.443H9.008v-.985l1.132-.394a.595.595 0 0 0 .246-.246c.098-.295.197-.542.295-.738a.423.423 0 0 0 0-.345l-.542-1.083.738-.738 1.083.542a.423.423 0 0 0 .345 0c.246-.148.492-.246.738-.295.098-.049.197-.098.246-.246l.394-1.132h1.083l.394 1.132a.595.595 0 0 0 .246.246c.295.098.542.197.738.295a.423.423 0 0 0 .345 0l1.083-.542.738.738-.542 1.083a.423.423 0 0 0 0 .345c.148.246.246.492.295.738a.595.595 0 0 0 .246.246l1.132.394v.985H16.93zm7.09-23.877v3.2H7.04v-3.2h16.985zM7.04 30.917v-5.169h4.923c.148 0 .246-.098.295-.197s.049-.197.049-.295c-.098-.197-.098-.443-.098-.689 0-1.132.935-2.018 2.018-2.018s2.018.935 2.018 2.018c0 .246-.049.443-.098.689-.098.246.098.492.345.492h7.532v5.169H7.039zm13.046-17.379a3.351 3.351 0 0 0 3.348 3.348c.197 0 .394-.049.591-.049v3.249h-1.378l-.492-1.428a.595.595 0 0 0-.246-.246c-.345-.098-.64-.246-.935-.394a.423.423 0 0 0-.345 0l-1.378.689-1.034-1.034.689-1.378a.423.423 0 0 0 0-.345 7.606 7.606 0 0 1-.394-.935.595.595 0 0 0-.246-.246l-1.428-.492V12.8l1.428-.492a.595.595 0 0 0 .246-.246c.098-.345.246-.689.394-.935a.423.423 0 0 0 0-.345l-.689-1.378 1.034-1.034 1.378.689a.423.423 0 0 0 .345 0c.295-.148.591-.295.935-.394.098-.049.197-.098.246-.246l.492-1.477h1.329v3.249c-.197-.049-.394-.049-.591-.049-1.822.049-3.298 1.575-3.298 3.397z"/></symbol>

<symbol id="icon-optimization" viewBox="0 0 32 32"><path d="M16 6.08A14.682 14.682 0 0 0 1.28 20.288c0 .448.384.832.832.832.384 0 .704-.256.832-.64 1.28-4.544 5.44-7.68 10.176-7.68 2.208 0 4.32.672 6.112 1.952l-5.632 5.44c-.16 0-.32-.032-.48-.032-1.6 0-2.88 1.28-2.88 2.88s1.28 2.88 2.88 2.88S16 24.64 16 23.04c0-.16-.032-.32-.032-.48l4.48-6.816a10.78 10.78 0 0 1 2.848 4.736c.096.384.448.64.832.64h5.76c.224 0 .448-.096.608-.256s.256-.384.224-.608C30.4 12.32 23.936 6.08 16 6.08zm5.728 1.856-4 5.216a10.923 10.923 0 0 0-4.288-.992V6.944c.832-.16 1.664-.224 2.56-.224 2.048 0 3.968.448 5.728 1.216zm-12.8 5.056-1.536-3.36A13.58 13.58 0 0 1 12.8 7.104v5.056a10.63 10.63 0 0 0-3.872.832zM2.336 20.32c-.032.096-.128.16-.224.16s-.192-.096-.192-.192a14.178 14.178 0 0 1 1.312-5.472L4.8 15.872a11.237 11.237 0 0 0-2.464 4.448zm2.912-4.928L3.52 14.24c.832-1.6 1.984-3.04 3.36-4.192l1.44 3.2a10.64 10.64 0 0 0-3.072 2.144zm7.872 9.888c-1.248 0-2.24-.992-2.24-2.24s.992-2.24 2.24-2.24 2.24.992 2.24 2.24-.992 2.24-2.24 2.24zm1.184-4.864 6.272-6.048-.448.672c-.032.032-.032.064-.032.064l-4.384 6.688c-.288-.608-.8-1.12-1.408-1.376zm6.464-5.216 1.888-2.88c.096-.128.064-.32-.064-.416s-.32-.096-.416 0l-2.464 2.368a12.37 12.37 0 0 0-1.376-.864l4-5.216a14.444 14.444 0 0 1 5.568 4.992L21.664 16l-.032.032c-.288-.288-.576-.544-.864-.832zm9.248 5.216a.244.244 0 0 1-.16.064h-5.76c-.096 0-.16-.064-.192-.16a10.878 10.878 0 0 0-1.888-3.744l6.208-2.816a14.325 14.325 0 0 1 1.856 6.496c-.032.096-.064.128-.064.16z"/></symbol>

<symbol id="icon-development" viewBox="0 0 32 32"><path d="M28.068 2.405c.711-.579 1.254.743.343.828a.489.489 0 0 1-.343-.828zm-1.759.346a.485.485 0 0 0-.968-.001v.001a.485.485 0 0 0 .968.001v-.001zm-3.412-.344c-.453.434.25 1.138.685.686s-.237-1.128-.685-.689zm7.57 8.405c.711.534-.145 1.398-.686.686L14.924 26.375a.475.475 0 0 1-.208.124l-.003.001-5.662 1.603a.483.483 0 0 1-.598-.601l-.001.003 1.592-5.666a.486.486 0 0 1 .123-.211L25.031 6.745a.5.5 0 1 1 .684-.688l.001.002 1.013-1.013c.32-.318.762-.515 1.249-.515s.929.197 1.249.515l2.254 2.251c.32.317.518.758.518 1.244v.006c.083.913-.987 1.673-1.533 2.264zM11.2 21.968l1.346 1.346L27.07 8.777l-1.348-1.346zm2.461 3.825-2.895-2.895-1.136 4.039zm15.437-14.982L27.75 9.462 13.232 23.999l1.349 1.349zm1.7-2.832-2.255-2.251c-.808-.782-1.601.566-2.143 1.013l3.38 3.38 1.013-1.013a.797.797 0 0 0 .003-1.129zM32 .485V5.01a.485.485 0 0 1-.968.001V.97H.97v3.555h22.787a.485.485 0 1 1 0 .97H.97V31.03h23.596v-5.987c0-.267.216-.483.483-.483h5.982V12.769a.485.485 0 1 1 .97 0v12.276a.484.484 0 0 1-.145.343l-6.465 6.465a.48.48 0 0 1-.341.145H.485A.485.485 0 0 1 0 31.516V.486C0 .218.217.001.485.001h31.03c.268 0 .485.217.485.485zm-6.465 29.859 4.811-4.809h-4.811zM14.21 15.514a.485.485 0 1 0 0-.97H4.848V9.373h15.49a.485.485 0 1 0 0-.97H4.365a.485.485 0 0 0-.485.485v18.749c0 .268.217.485.485.485h2.614a.485.485 0 1 0 0-.97H4.848V15.514z"/></symbol>

</defs></svg>